<svg xmlns="http://www.w3.org/2000/svg" width="180" height="180" viewBox="0 0 180 180" fill="none">
  <defs>
    <pattern id="org-head-pattern" width="180" height="180" patternUnits="userSpaceOnUse">
      <circle cx="24" cy="28" r="2" fill="#c4b5fd" fill-opacity="0.28"/>
      <circle cx="90" cy="18" r="1.5" fill="#a78bfa" fill-opacity="0.22"/>
      <circle cx="156" cy="34" r="2" fill="#ddd6fe" fill-opacity="0.32"/>
      <circle cx="48" cy="92" r="1.5" fill="#e9d5ff" fill-opacity="0.25"/>
      <circle cx="132" cy="88" r="2" fill="#c4b5fd" fill-opacity="0.24"/>
      <circle cx="18" cy="148" r="1.5" fill="#ddd6fe" fill-opacity="0.3"/>
      <circle cx="162" cy="152" r="1.5" fill="#a78bfa" fill-opacity="0.2"/>
      <circle cx="90" cy="142" r="2" fill="#e9d5ff" fill-opacity="0.26"/>

      <circle cx="72" cy="56" r="5" fill="#ede9fe" fill-opacity="0.55"/>
      <circle cx="108" cy="56" r="5" fill="#f5f3ff" fill-opacity="0.7"/>
      <path d="M72 61 L90 74 L108 61" stroke="#c4b5fd" stroke-opacity="0.28" stroke-width="1.2" stroke-linecap="round" stroke-linejoin="round"/>
      <circle cx="90" cy="74" r="4" fill="#ddd6fe" fill-opacity="0.45"/>

      <circle cx="36" cy="118" r="4" fill="#f5f3ff" fill-opacity="0.65"/>
      <line x1="36" y1="122" x2="36" y2="132" stroke="#c4b5fd" stroke-opacity="0.22" stroke-width="1"/>
      <circle cx="36" cy="136" r="3" fill="#ede9fe" fill-opacity="0.5"/>

      <circle cx="144" cy="118" r="4" fill="#ede9fe" fill-opacity="0.5"/>
      <line x1="144" y1="122" x2="144" y2="132" stroke="#a78bfa" stroke-opacity="0.2" stroke-width="1"/>
      <circle cx="144" cy="136" r="3" fill="#f5f3ff" fill-opacity="0.6"/>

      <path d="M0 90 H180" stroke="#e9d5ff" stroke-opacity="0.18" stroke-width="0.8"/>
      <path d="M90 0 V180" stroke="#ede9fe" stroke-opacity="0.14" stroke-width="0.8"/>
    </pattern>
  </defs>
  <rect width="180" height="180" fill="#faf8ff"/>
  <rect width="180" height="180" fill="url(#org-head-pattern)"/>
</svg>
