<svg xmlns="http://www.w3.org/2000/svg" viewBox="0 0 200 200" role="img" aria-label="Reflexao guiada">
  <rect width="200" height="200" rx="20" fill="#f1f5f9"/>
  <rect x="45" y="40" width="110" height="130" rx="8" fill="#fff" stroke="#cbd5e1" stroke-width="2"/>
  <rect x="58" y="58" width="16" height="16" rx="3" fill="#0f766e"/>
  <path d="M62 66 L68 72 L76 60" fill="none" stroke="#fff" stroke-width="2" stroke-linecap="round"/>
  <rect x="82" y="62" width="60" height="6" rx="3" fill="#e2e8f0"/>
  <rect x="58" y="82" width="16" height="16" rx="3" fill="#0f766e"/>
  <path d="M62 90 L68 96 L76 84" fill="none" stroke="#fff" stroke-width="2" stroke-linecap="round"/>
  <rect x="82" y="86" width="55" height="6" rx="3" fill="#e2e8f0"/>
  <rect x="58" y="106" width="16" height="16" rx="3" fill="none" stroke="#cbd5e1" stroke-width="2"/>
  <rect x="82" y="110" width="65" height="6" rx="3" fill="#e2e8f0"/>
  <rect x="58" y="130" width="16" height="16" rx="3" fill="none" stroke="#cbd5e1" stroke-width="2"/>
  <rect x="82" y="134" width="50" height="6" rx="3" fill="#e2e8f0"/>
  <circle cx="155" cy="155" r="25" fill="#14b8a6" opacity="0.2"/>
  <text x="155" y="161" text-anchor="middle" font-size="18" font-weight="700" fill="#0f766e">OK</text>
</svg>
